nColumns=28
nRows=60
DataType=double
version=3
OpenSimVersion=4.1
endheader
time	ground_force_1_vx	ground_force_1_vy	ground_force_1_vz	ground_force_1_px	ground_force_1_py	ground_force_1_pz	ground_force_1_mx	ground_force_1_my	ground_force_1_mz	ground_force_2_vx	ground_force_2_vy	ground_force_2_vz	ground_force_2_px	ground_force_2_py	ground_force_2_pz	ground_force_2_mx	ground_force_2_my	ground_force_2_mz	ground_force_3_vx	ground_force_3_vy	ground_force_3_vz	ground_force_3_px	ground_force_3_py	ground_force_3_pz	ground_force_3_mx	ground_force_3_my	ground_force_3_mz
1.56	-163.808	203.731	-36.5145	-0.051525	0.006	-0.37127	0	1.42438	0	-163.519	194.803	14.5719	-0.016109	0.006	-0.721548	0	-4.20403	0	0	0	0	0	0	0	0	0	0
1.57	-326.126	455.99	-82.0429	-0.067156	0.006	-0.3656	0	1.99374	0	-316.56	421.969	49.1201	-0.032095	0.006	-0.738008	0	-4.25468	0	0	0	0	0	0	0	0	0	0
1.58	-207.714	646.41	-93.523	-0.116395	0.006	-0.372204	0	2.22469	0	-236.475	642.154	101.381	-0.079824	0.006	-0.739778	0	-3.2953	0	0	0	0	0	0	0	0	0	0
1.59	-49.8909	1177.56	-74.75	-0.175457	0.006	-0.388636	0	-1.46877	0	-78.0167	1158.84	122.584	-0.139072	0.006	-0.7377	0	2.8913	0	0	0	0	0	0	0	0	0	0
1.6	-13.0004	1333.09	-39.9142	-0.188495	0.006	-0.394728	0	-4.09147	0	-49.0711	1233.21	112.344	-0.151099	0.006	-0.736691	0	4.98501	0	0	0	0	0	0	0	0	0	0
1.61	-197.966	857.831	-58.1661	-0.161954	0.006	-0.390328	0	-3.34529	0	-222.13	718.983	87.5555	-0.116995	0.006	-0.734542	0	1.18024	0	0	0	0	0	0	0	0	0	0
1.62	-311.439	510.244	-60.2703	-0.109703	0.006	-0.381601	0	-2.21208	0	-316.155	413.836	50.1772	-0.054672	0.006	-0.728325	0	-3.67229	0	0	0	0	0	0	0	0	0	0
1.63	-279.287	414.643	-30.6973	-0.086641	0.006	-0.380636	0	-3.44468	0	-307.254	357.145	19.1029	-0.034289	0.006	-0.721516	0	-3.06721	0	0	0	0	0	0	0	0	0	0
1.64	-222.61	439.744	-15.5624	-0.09431	0.006	-0.382366	0	-4.51458	0	-280.464	372.382	5.50574	-0.039019	0.006	-0.719288	0	-0.813833	0	0	0	0	0	0	0	0	0	0
1.65	-197.368	533.521	-33.126	-0.109644	0.006	-0.382228	0	-4.22208	0	-244.266	425.388	1.98503	-0.053874	0.006	-0.719563	0	1.68961	0	0	0	0	0	0	0	0	0	0
1.66	-153.059	654.557	-45.4583	-0.126938	0.006	-0.383436	0	-3.74864	0	-183.199	541.966	11.2113	-0.081799	0.006	-0.722351	0	3.49187	0	0	0	0	0	0	0	0	0	0
1.67	-85.0505	735.798	-53.4335	-0.139903	0.006	-0.38425	0	-3.02258	0	-113.372	649.039	47.0004	-0.102717	0.006	-0.726806	0	2.85184	0	0	0	0	0	0	0	0	0	0
1.68	-60.0692	737.941	-57.2069	-0.142767	0.006	-0.383732	0	-2.8277	0	-95.1205	646.6	74.9261	-0.105906	0.006	-0.72992	0	1.81048	0	0	0	0	0	0	0	0	0	0
1.69	-88.2772	679.563	-53.7592	-0.136464	0.006	-0.382302	0	-3.67127	0	-129.688	570.434	65.052	-0.096062	0.006	-0.729774	0	2.98817	0	0	0	0	0	0	0	0	0	0
1.7	-111.691	604.645	-50.2175	-0.128373	0.006	-0.380455	0	-4.36727	0	-155.613	500.279	44.613	-0.085205	0.006	-0.727994	0	5.28411	0	0	0	0	0	0	0	0	0	0
1.71	-115.89	552.125	-56.0001	-0.123725	0.006	-0.378204	0	-4.07818	0	-152.167	461.987	40.6946	-0.0813	0.006	-0.727538	0	6.49846	0	0	0	0	0	0	0	0	0	0
1.72	-111.574	533.735	-62.5701	-0.12365	0.006	-0.376927	0	-3.84909	0	-135.433	458.75	49.7272	-0.084883	0.006	-0.728622	0	6.90605	0	0	0	0	0	0	0	0	0	0
1.73	-99.6491	545.707	-60.3771	-0.127961	0.006	-0.377787	0	-4.58504	0	-115.496	480.823	57.616	-0.092888	0.006	-0.729632	0	7.67621	0	0	0	0	0	0	0	0	0	0
1.74	-82.0183	572.88	-53.762	-0.134232	0.006	-0.379506	0	-5.7967	0	-96.8584	499.504	58.9391	-0.100296	0.006	-0.729789	0	8.80126	0	0	0	0	0	0	0	0	0	0
1.75	-68.206	593.519	-50.5833	-0.139011	0.006	-0.38038	0	-6.78285	0	-87.2764	497.036	56.3507	-0.10431	0.006	-0.729541	0	9.80174	0	0	0	0	0	0	0	0	0	0
1.76	-63.6283	596.338	-53.5776	-0.141104	0.006	-0.38012	0	-7.17811	0	-87.504	481.105	54.2818	-0.105484	0.006	-0.729294	0	10.5467	0	0	0	0	0	0	0	0	0	0
1.77	-63.2638	590.738	-58.7109	-0.142022	0.006	-0.379591	0	-7.19468	0	-88.728	467.645	53.0635	-0.10656	0.006	-0.729043	0	11.1316	0	0	0	0	0	0	0	0	0	0
1.78	-59.157	592.868	-61.0682	-0.144045	0.006	-0.380105	0	-7.18311	0	-86.1709	463.987	51.4222	-0.108708	0.006	-0.728913	0	11.6875	0	0	0	0	0	0	0	0	0	0
1.79	-49.6591	602.59	-59.0454	-0.147399	0.006	-0.381969	0	-7.35097	0	-81.1103	466.661	51.8251	-0.111576	0.006	-0.729082	0	12.0512	0	0	0	0	0	0	0	0	0	0
1.8	-41.3096	610.496	-55.1003	-0.150508	0.006	-0.384202	0	-7.67071	0	-74.4727	469.372	56.7426	-0.114388	0.006	-0.729617	0	11.9206	0	0	0	0	0	0	0	0	0	0
1.81	-37.9738	610.712	-51.6709	-0.152651	0.006	-0.386174	0	-7.93271	0	-66.6989	472.106	62.6964	-0.117373	0.006	-0.730001	0	11.5146	0	0	0	0	0	0	0	0	0	0
1.82	-37.0365	606.631	-48.8149	-0.154213	0.006	-0.387885	0	-8.04522	0	-58.1558	479.07	63.4934	-0.12125	0.006	-0.729446	0	11.3396	0	0	0	0	0	0	0	0	0	0
1.83	-34.2811	605.129	-46.8008	-0.156001	0.006	-0.389327	0	-7.97395	0	-48.9793	486.156	59.0814	-0.125728	0.006	-0.728049	0	11.3803	0	0	0	0	0	0	0	0	0	0
1.84	-28.5624	607.059	-46.3865	-0.158165	0.006	-0.390359	0	-7.67769	0	-42.1128	481.856	53.3573	-0.129106	0.006	-0.726244	0	11.3368	0	0	0	0	0	0	0	0	0	0
1.85	-22.5769	608.615	-46.8833	-0.160179	0.006	-0.391183	0	-7.14159	0	-41.5285	461.935	47.7455	-0.130666	0.006	-0.724256	0	11.0846	0	0	0	0	0	0	0	0	0	0
1.86	-19.6103	605.331	-46.6101	-0.161505	0.006	-0.391975	0	-6.45585	0	-44.8387	434.387	42.4806	-0.130961	0.006	-0.722296	0	10.6499	0	0	0	0	0	0	0	0	0	0
1.87	-18.9675	598.914	-44.6139	-0.162522	0.006	-0.392947	0	-5.78879	0	-45.3639	409.922	38.3422	-0.131494	0.006	-0.720419	0	10.1532	0	0	0	0	0	0	0	0	0	0
1.88	-16.1982	595.203	-41.3689	-0.164121	0.006	-0.394028	0	-5.18581	0	-39.5756	393.226	35.3635	-0.133816	0.006	-0.718793	0	9.79185	0	0	0	0	0	0	0	0	0	0
1.89	-10.3275	593.667	-38.3373	-0.166445	0.006	-0.395217	0	-4.63878	0	-30.3315	381.642	32.8263	-0.137322	0.006	-0.717436	0	9.54351	0	0	0	0	0	0	0	0	0	0
1.9	-4.72084	589.236	-36.7152	-0.16875	0.006	-0.396211	0	-4.18176	0	-21.3383	369.272	30.083	-0.141113	0.006	-0.715957	0	9.35888	0	0	0	0	0	0	0	0	0	0
1.91	-1.50932	578.856	-36.6128	-0.170607	0.006	-0.39669	0	-3.78387	0	-14.1899	354.96	26.7214	-0.145027	0.006	-0.714195	0	9.19581	0	0	0	0	0	0	0	0	0	0
1.92	0.167483	564.818	-37.6933	-0.172192	0.006	-0.396894	0	-3.42524	0	-8.02672	343.797	22.7958	-0.149033	0.006	-0.712402	0	9.0781	0	0	0	0	0	0	0	0	0	0
1.93	2.84692	552.717	-39.5712	-0.174009	0.006	-0.396916	0	-3.13512	0	-2.02015	336.666	19.9346	-0.153249	0.006	-0.711059	0	8.96585	0	0	0	0	0	0	0	0	0	0
1.94	8.61424	545.055	-41.833	-0.176417	0.006	-0.397098	0	-2.91286	0	3.10812	331.22	18.9542	-0.157034	0.006	-0.71002	0	8.80963	0	0	0	0	0	0	0	0	0	0
1.95	16.1268	540.065	-43.6256	-0.179247	0.006	-0.397493	0	-2.74756	0	7.03117	324.656	19.0746	-0.160397	0.006	-0.709395	0	8.59575	0	0	0	0	0	0	0	0	0	0
1.96	22.4604	534.595	-44.6198	-0.182097	0.006	-0.398084	0	-2.69395	0	10.0382	315.962	19.5429	-0.163565	0.006	-0.708739	0	8.32336	0	0	0	0	0	0	0	0	0	0
1.97	26.5103	527.207	-44.6196	-0.184613	0.006	-0.398838	0	-2.76227	0	12.9599	307.815	20.1577	-0.16662	0.006	-0.708302	0	8.01564	0	0	0	0	0	0	0	0	0	0
1.98	29.2064	519.048	-44.1848	-0.186875	0.006	-0.399648	0	-2.84416	0	16.2226	300.253	20.686	-0.169678	0.006	-0.707819	0	7.66707	0	0	0	0	0	0	0	0	0	0
1.99	31.3455	510.887	-44.4546	-0.188987	0.006	-0.400374	0	-2.85859	0	19.5159	290.627	20.803	-0.172879	0.006	-0.706708	0	7.31424	0	0	0	0	0	0	0	0	0	0
2	33.7449	502.69	-45.2922	-0.191066	0.006	-0.400962	0	-2.81264	0	22.7716	280.562	20.4847	-0.175772	0.006	-0.70552	0	6.87651	0	0	0	0	0	0	0	0	0	0
2.01	37.3356	494.443	-45.6161	-0.193307	0.006	-0.401527	0	-2.69838	0	26.0207	272.317	19.7482	-0.178079	0.006	-0.704565	0	6.41737	0	0	0	0	0	0	0	0	0	0
2.02	42.5137	484.882	-44.942	-0.195655	0.006	-0.402424	0	-2.46701	0	29.0723	263.783	18.7982	-0.180431	0.006	-0.703714	0	5.96833	0	0	0	0	0	0	0	0	0	0
2.03	48.6534	472.976	-44.1889	-0.197949	0.006	-0.403204	0	-2.17064	0	33.0322	253.509	18.1301	-0.182983	0.006	-0.702318	0	5.60283	0	0	0	0	0	0	0	0	0	0
2.04	54.0745	459.871	-44.1117	-0.199854	0.006	-0.403907	0	-1.89728	0	39.3444	245.324	18.546	-0.185138	0.006	-0.701532	0	5.26348	0	0	0	0	0	0	0	0	0	0
2.05	57.8431	447.527	-43.7832	-0.201223	0.006	-0.404488	0	-1.64481	0	47.3972	239.722	20.0777	-0.187004	0.006	-0.701363	0	4.98455	0	0	0	0	0	0	0	0	0	0
2.06	58.8044	436.518	-43.0422	-0.201909	0.006	-0.405031	0	-1.43315	0	54.5008	235.405	21.7554	-0.188879	0.006	-0.701436	0	4.77266	0	0	0	0	0	0	0	0	0	0
2.07	57.7519	429.498	-42.48	-0.2019	0.006	-0.40557	0	-1.31573	0	57.8614	233.657	22.7661	-0.189581	0.006	-0.701674	0	4.57753	0	0	0	0	0	0	0	0	0	0
2.08	56.5679	426.723	-41.9535	-0.201487	0.006	-0.405906	0	-1.22821	0	57.6615	232.931	22.5936	-0.188985	0.006	-0.701553	0	4.377	0	0	0	0	0	0	0	0	0	0
2.09	55.9732	426.992	-41.4428	-0.200512	0.006	-0.405927	0	-1.19122	0	56.7647	230.967	22.2136	-0.187665	0.006	-0.700802	0	4.26636	0	0	0	0	0	0	0	0	0	0
2.1	55.5332	431.93	-41.6489	-0.197987	0.006	-0.40567	0	-1.30987	0	56.4518	231.645	22.722	-0.185428	0.006	-0.700505	0	4.19554	0	0	0	0	0	0	0	0	0	0
2.11	51.1116	441.187	-41.7683	-0.192384	0.006	-0.404776	0	-1.46967	0	56.3896	238.372	24.7303	-0.181617	0.006	-0.701276	0	4.1641	0	0	0	0	0	0	0	0	0	0
2.12	41.9819	450.583	-42.4289	-0.183743	0.006	-0.402929	0	-1.58633	0	54.4036	251.052	28.5325	-0.175386	0.006	-0.702987	0	4.21294	0	0	0	0	0	0	0	0	0	0
2.13	32.1306	461.821	-45.8723	-0.172819	0.006	-0.400053	0	-1.7232	0	48.9896	271.232	32.5315	-0.166269	0.006	-0.70494	0	4.32331	0	0	0	0	0	0	0	0	0	0
2.14	19.4301	474.912	-51.4276	-0.160147	0.006	-0.396885	0	-1.95876	0	40.3151	295.827	35.7101	-0.154518	0.006	-0.706848	0	4.51273	0	0	0	0	0	0	0	0	0	0
2.15	3.90702	486.665	-56.5426	-0.146821	0.006	-0.39376	0	-2.35019	0	27.0557	317.22	38.2562	-0.140819	0.006	-0.708188	0	4.61454	0	0	0	0	0	0	0	0	0	0
